<svg xmlns="http://www.w3.org/2000/svg" viewBox="0 0 200 36"  fill="#222220" xmlns:v="https://vecta.io/nano"><path d="M14.2 27.8c-1.4.4-2.6.6-3.7.6-2.1 0-3.9-.4-5.5-1.3-1.6-.8-2.8-2-3.7-3.5S0 20.5 0 18.6c0-2.2.5-4.2 1.4-5.8a9.14 9.14 0 0 1 3.7-3.6A11.25 11.25 0 0 1 10.2 8c1.2 0 2.2.1 3.3.4 1 .3 1.9.6 2.7 1.1l-1 3c-.5-.3-1.3-.6-2.2-.8s-1.7-.4-2.4-.4c-2.3 0-4.1.6-5.4 1.9s-2 3-2 5.3c0 1.4.3 2.5.9 3.6.6 1 1.5 1.8 2.6 2.4s2.4.8 3.8.8c.6 0 1.3-.1 1.8-.2a5.27 5.27 0 0 0 1.5-.5v-3.3H10v-3.1h7v8.2c-.4.5-1.4 1-2.8 1.4zm21.4.5l-4.5-6.9h-3.2v6.9h-3.2v-20h5.6c2.2 0 4 .6 5.4 1.7 1.3 1.1 2 2.7 2 4.7 0 1.2-.3 2.4-.8 3.4a4.53 4.53 0 0 1-2.5 2.4l4.9 7.7h-3.7zm-7.7-10h2.9c1.3 0 2.2-.4 2.8-1.1s.9-1.5.9-2.4c0-.5-.1-1-.3-1.5s-.6-1-1.1-1.3c-.5-.4-1.2-.6-2.1-.6h-3v6.9zM59 8.3v3.1H49v5.3h8.9v3.1H49v5.4h10.4v3.1H45.8v-20H59zm17.8 15.3h-7.3l-1.9 4.7h-3.2l8.8-20.8h.2l8.8 20.8h-3.7l-1.7-4.7zm-1-2.8l-2.5-6.3-2.6 6.3h5.1zm23-12.5v3.1h-5.2v16.9h-3.2V11.4h-5V8.3h13.4zm12.7 2.7c-1 0-1.8.2-2.3.7-.6.4-.9 1-.9 1.8 0 .7.4 1.4 1.1 1.9s1.7 1 3 1.5c1 .3 1.8.7 2.5 1.2.7.4 1.3 1.1 1.7 1.8.5.8.7 1.7.7 2.9 0 1.1-.3 2-.8 2.9s-1.3 1.5-2.3 2.1c-1 .5-2.2.8-3.6.8-1.2 0-2.4-.2-3.6-.6s-2.2-.9-3.1-1.5l1.4-2.5c.7.5 1.5.9 2.4 1.3.9.3 1.8.5 2.6.5 1 0 1.8-.2 2.5-.7s1.1-1.2 1.1-2.2a2.32 2.32 0 0 0-.9-1.9c-.6-.5-1.5-1-2.6-1.4s-2.1-.8-2.8-1.2-1.4-1-1.9-1.7-.8-1.7-.8-2.8c0-1.6.6-2.9 1.7-3.9s2.6-1.5 4.4-1.6c1.3 0 2.5.2 3.5.5s1.9.7 2.8 1.3l-1.2 2.4c-1.7-1.1-3.3-1.6-4.6-1.6zm24.7-2.7v3.1H131v16.9h-3.2V11.4h-5V8.3h13.4zm20 0v3.1h-10v5.3h8.9v3.1h-8.9v5.4h10.4v3.1H143v-20h13.2zm23.7 0L171 29.2l-9-20.9h3.8l5.3 13.1 5-13.1h3.8zm19.7 0v3.1h-10v5.3h8.9v3.1h-8.9v5.4H200v3.1h-13.6v-20h13.2z"/></svg>